<svg xmlns="http://www.w3.org/2000/svg" xmlns:xlink="http://www.w3.org/1999/xlink" contentStyleType="text/css" height="853px" preserveAspectRatio="none" style="width:1209px;height:853px;background:#FFFFFF;" version="1.1" viewBox="0 0 1209 853" width="1209px" zoomAndPan="magnify"><defs/><g><!--class TipoCoche--><g id="elem_TipoCoche"><rect codeLine="3" fill="#F1F1F1" height="103.8633" id="TipoCoche" rx="2.5" ry="2.5" style="stroke:#181818;stroke-width:0.5;" width="99.7031" x="389.5" y="7"/><ellipse cx="404.5" cy="23" fill="#EB937F" rx="11" ry="11" style="stroke:#181818;stroke-width:1.0;"/><path d="M403.3594,23.7969 L403.3594,26.2969 L407.6875,26.2969 L407.6875,25.375 Q407.6875,24.7656 407.9219,24.5 Q408.1719,24.2344 408.5469,24.2344 Q408.9219,24.2344 409.1563,24.5 Q409.3906,24.7656 409.3906,25.375 L409.3906,28 L401.3906,28 Q400.7656,28 400.5,27.7656 Q400.25,27.5313 400.25,27.1406 Q400.25,26.7656 400.5156,26.5313 Q400.7813,26.2969 401.3906,26.2969 L401.6563,26.2969 L401.6563,19.6406 L401.3906,19.6406 Q400.7656,19.6406 400.5,19.4063 Q400.25,19.1719 400.25,18.7813 Q400.25,18.4063 400.5,18.1719 Q400.7656,17.9375 401.3906,17.9375 L409.0156,17.9375 L409.0156,20.5313 Q409.0156,21.1406 408.7813,21.4063 Q408.5625,21.6563 408.1719,21.6563 Q407.7969,21.6563 407.5625,21.4063 Q407.3281,21.1406 407.3281,20.5313 L407.3281,19.6406 L403.3594,19.6406 L403.3594,22.0938 L404.8438,22.0938 Q404.8438,21.4375 404.9688,21.25 Q405.2344,20.8438 405.7031,20.8438 Q406.0781,20.8438 406.3125,21.1094 Q406.5469,21.3594 406.5469,21.9688 L406.5469,23.9375 Q406.5469,24.4844 406.4219,24.6719 Q406.1563,25.0625 405.7031,25.0625 Q405.2344,25.0625 404.9688,24.6563 Q404.8438,24.4688 404.8438,23.7969 L403.3594,23.7969 Z " fill="#000000"/><text fill="#000000" font-family="sans-serif" font-size="14" lengthAdjust="spacing" textLength="67.7031" x="418.5" y="28.7969">TipoCoche</text><line style="stroke:#181818;stroke-width:0.5;" x1="390.5" x2="488.2031" y1="39" y2="39"/><text fill="#000000" font-family="sans-serif" font-size="14" lengthAdjust="spacing" textLength="48.2344" x="395.5" y="58.1074">SEDAN</text><text fill="#000000" font-family="sans-serif" font-size="14" lengthAdjust="spacing" textLength="28.7861" x="395.5" y="76.7285">SUV</text><text fill="#000000" font-family="sans-serif" font-size="14" lengthAdjust="spacing" textLength="82.4551" x="395.5" y="95.3496">DEPORTIVO</text><line style="stroke:#181818;stroke-width:0.5;" x1="390.5" x2="488.2031" y1="102.8633" y2="102.8633"/></g><!--class TipoMoto--><g id="elem_TipoMoto"><rect codeLine="9" fill="#F1F1F1" height="85.2422" id="TipoMoto" rx="2.5" ry="2.5" style="stroke:#181818;stroke-width:0.5;" width="92.9033" x="525" y="16.5"/><ellipse cx="541.1452" cy="32.5" fill="#EB937F" rx="11" ry="11" style="stroke:#181818;stroke-width:1.0;"/><path d="M540.0046,33.2969 L540.0046,35.7969 L544.3327,35.7969 L544.3327,34.875 Q544.3327,34.2656 544.5671,34 Q544.8171,33.7344 545.1921,33.7344 Q545.5671,33.7344 545.8015,34 Q546.0358,34.2656 546.0358,34.875 L546.0358,37.5 L538.0358,37.5 Q537.4108,37.5 537.1452,37.2656 Q536.8952,37.0313 536.8952,36.6406 Q536.8952,36.2656 537.1608,36.0313 Q537.4265,35.7969 538.0358,35.7969 L538.3015,35.7969 L538.3015,29.1406 L538.0358,29.1406 Q537.4108,29.1406 537.1452,28.9063 Q536.8952,28.6719 536.8952,28.2813 Q536.8952,27.9063 537.1452,27.6719 Q537.4108,27.4375 538.0358,27.4375 L545.6608,27.4375 L545.6608,30.0313 Q545.6608,30.6406 545.4265,30.9063 Q545.2077,31.1563 544.8171,31.1563 Q544.4421,31.1563 544.2077,30.9063 Q543.9733,30.6406 543.9733,30.0313 L543.9733,29.1406 L540.0046,29.1406 L540.0046,31.5938 L541.489,31.5938 Q541.489,30.9375 541.614,30.75 Q541.8796,30.3438 542.3483,30.3438 Q542.7233,30.3438 542.9577,30.6094 Q543.1921,30.8594 543.1921,31.4688 L543.1921,33.4375 Q543.1921,33.9844 543.0671,34.1719 Q542.8015,34.5625 542.3483,34.5625 Q541.8796,34.5625 541.614,34.1563 Q541.489,33.9688 541.489,33.2969 L540.0046,33.2969 Z " fill="#000000"/><text fill="#000000" font-family="sans-serif" font-size="14" lengthAdjust="spacing" textLength="58.3584" x="555.3997" y="38.2969">TipoMoto</text><line style="stroke:#181818;stroke-width:0.5;" x1="526" x2="616.9033" y1="48.5" y2="48.5"/><text fill="#000000" font-family="sans-serif" font-size="14" lengthAdjust="spacing" textLength="69.2275" x="531" y="67.6074">SCOOTER</text><text fill="#000000" font-family="sans-serif" font-size="14" lengthAdjust="spacing" textLength="80.9033" x="531" y="86.2285">DEPORTIVA</text><line style="stroke:#181818;stroke-width:0.5;" x1="526" x2="616.9033" y1="93.7422" y2="93.7422"/></g><!--class Valorable--><g id="elem_Valorable"><rect codeLine="15" fill="#F1F1F1" height="66.6211" id="Valorable" rx="2.5" ry="2.5" style="stroke:#181818;stroke-width:0.5;" width="211.2061" x="653" y="25.5"/><ellipse cx="724.7773" cy="41.5" fill="#B4A7E5" rx="11" ry="11" style="stroke:#181818;stroke-width:1.0;"/><path d="M725.7305,38.1406 L725.7305,44.7969 L727.4492,44.7969 Q728.0586,44.7969 728.3242,45.0313 Q728.5898,45.2656 728.5898,45.6563 Q728.5898,46.0313 728.3242,46.2656 Q728.0586,46.5 727.4492,46.5 L722.3086,46.5 Q721.6992,46.5 721.4336,46.2656 Q721.168,46.0313 721.168,45.6406 Q721.168,45.2656 721.4336,45.0313 Q721.6992,44.7969 722.3086,44.7969 L724.0273,44.7969 L724.0273,38.1406 L722.3086,38.1406 Q721.6992,38.1406 721.4336,37.9063 Q721.168,37.6719 721.168,37.2813 Q721.168,36.9063 721.4336,36.6719 Q721.6992,36.4375 722.3086,36.4375 L727.4492,36.4375 Q728.0586,36.4375 728.3242,36.6719 Q728.5898,36.9063 728.5898,37.2813 Q728.5898,37.6719 728.3242,37.9063 Q728.0586,38.1406 727.4492,38.1406 L725.7305,38.1406 Z " fill="#000000"/><text fill="#000000" font-family="sans-serif" font-size="14" font-style="italic" lengthAdjust="spacing" textLength="59.1514" x="745.2773" y="47.2969">Valorable</text><line style="stroke:#181818;stroke-width:0.5;" x1="654" x2="863.2061" y1="57.5" y2="57.5"/><line style="stroke:#181818;stroke-width:0.5;" x1="654" x2="863.2061" y1="65.5" y2="65.5"/><ellipse cx="664" cy="80.3105" fill="#84BE84" rx="3" ry="3" style="stroke:#038048;stroke-width:1.0;"/><text fill="#000000" font-family="sans-serif" font-size="14" font-style="italic" lengthAdjust="spacing" textLength="185.2061" x="673" y="84.6074">double calcularDepreciacion()</text></g><!--class Vehiculo--><g id="elem_Vehiculo"><rect codeLine="20" fill="#F1F1F1" height="252.832" id="Vehiculo" rx="2.5" ry="2.5" style="stroke:#181818;stroke-width:0.5;" width="327.9434" x="594.5" y="172"/><ellipse cx="727.3701" cy="188" fill="#A9DCDF" rx="11" ry="11" style="stroke:#181818;stroke-width:1.0;"/><path d="M729.5576,189.7656 L725.417,189.7656 L724.9951,190.7969 L725.417,190.7969 Q726.0264,190.7969 726.292,191.0313 Q726.5576,191.2656 726.5576,191.6563 Q726.5576,192.0313 726.292,192.2656 Q726.0264,192.5 725.417,192.5 L723.1201,192.5 Q722.5107,192.5 722.2607,192.2656 Q721.9951,192.0313 721.9951,191.6406 Q721.9951,191.2656 722.2764,191.0313 Q722.542,190.7813 723.167,190.7969 L725.8389,184.1406 L724.7295,184.1406 Q724.1201,184.1406 723.8545,183.9063 Q723.5889,183.6719 723.5889,183.2813 Q723.5889,182.9063 723.8545,182.6719 Q724.1201,182.4375 724.7295,182.4375 L728.4014,182.4375 L731.792,190.7969 Q732.3857,190.7969 732.5732,190.9375 Q732.9639,191.2031 732.9639,191.6563 Q732.9639,192.0313 732.6982,192.2656 Q732.4482,192.5 731.8389,192.5 L729.542,192.5 Q728.9326,192.5 728.667,192.2656 Q728.4014,192.0313 728.4014,191.6406 Q728.4014,191.2656 728.667,191.0313 Q728.9326,190.7969 729.542,190.7969 L729.9639,190.7969 L729.5576,189.7656 Z M728.8389,188.0625 L727.4795,184.6875 L726.1045,188.0625 L728.8389,188.0625 Z " fill="#000000"/><text fill="#000000" font-family="sans-serif" font-size="14" font-style="italic" lengthAdjust="spacing" textLength="53.7031" x="747.8701" y="193.7969">Vehiculo</text><line style="stroke:#181818;stroke-width:0.5;" x1="595.5" x2="921.4434" y1="204" y2="204"/><rect fill="none" height="6" style="stroke:#C82930;stroke-width:1.0;" width="6" x="602.5" y="215.8105"/><text fill="#000000" font-family="sans-serif" font-size="14" lengthAdjust="spacing" textLength="136.1787" x="614.5" y="223.1074">{final} String matricula</text><rect fill="none" height="6" style="stroke:#C82930;stroke-width:1.0;" width="6" x="602.5" y="234.4316"/><text fill="#000000" font-family="sans-serif" font-size="14" lengthAdjust="spacing" textLength="79.3584" x="614.5" y="241.7285">String marca</text><rect fill="none" height="6" style="stroke:#C82930;stroke-width:1.0;" width="6" x="602.5" y="253.0527"/><text fill="#000000" font-family="sans-serif" font-size="14" lengthAdjust="spacing" textLength="86.3789" x="614.5" y="260.3496">String modelo</text><rect fill="none" height="6" style="stroke:#C82930;stroke-width:1.0;" width="6" x="602.5" y="271.6738"/><text fill="#000000" font-family="sans-serif" font-size="14" lengthAdjust="spacing" textLength="86.3652" x="614.5" y="278.9707">int kilometraje</text><rect fill="none" height="6" style="stroke:#C82930;stroke-width:1.0;" width="6" x="602.5" y="290.2949"/><text fill="#000000" font-family="sans-serif" font-size="14" lengthAdjust="spacing" textLength="84.0615" x="614.5" y="297.5918">double precio</text><rect fill="none" height="6" style="stroke:#C82930;stroke-width:1.0;" width="6" x="602.5" y="308.916"/><text fill="#000000" font-family="sans-serif" font-size="14" lengthAdjust="spacing" textLength="173.5439" x="614.5" y="316.2129">LocalDate fechaFabricacion</text><rect fill="none" height="6" style="stroke:#C82930;stroke-width:1.0;" width="6" x="602.5" y="327.5371"/><text fill="#000000" font-family="sans-serif" font-size="14" lengthAdjust="spacing" textLength="122.1855" x="614.5" y="334.834">Persona propietario</text><line style="stroke:#181818;stroke-width:0.5;" x1="595.5" x2="921.4434" y1="342.3477" y2="342.3477"/><ellipse cx="605.5" cy="357.1582" fill="#84BE84" rx="3" ry="3" style="stroke:#038048;stroke-width:1.0;"/><text fill="#000000" font-family="sans-serif" font-size="14" font-style="italic" lengthAdjust="spacing" textLength="185.2061" x="614.5" y="361.4551">double calcularDepreciacion()</text><ellipse cx="605.5" cy="375.7793" fill="#84BE84" rx="3" ry="3" style="stroke:#038048;stroke-width:1.0;"/><text fill="#000000" font-family="sans-serif" font-size="14" lengthAdjust="spacing" textLength="301.9434" x="614.5" y="380.0762">double calcularRiesgo(int experienciaConductor)</text><ellipse cx="605.5" cy="394.4004" fill="#84BE84" rx="3" ry="3" style="stroke:#038048;stroke-width:1.0;"/><text fill="#000000" font-family="sans-serif" font-size="14" lengthAdjust="spacing" textLength="126.041" x="614.5" y="398.6973">String getMatricula()</text><ellipse cx="605.5" cy="413.0215" fill="#84BE84" rx="3" ry="3" style="stroke:#038048;stroke-width:1.0;"/><text fill="#000000" font-family="sans-serif" font-size="14" lengthAdjust="spacing" textLength="247.4609" x="614.5" y="417.3184">void setPropietario(Persona propietario)</text></g><!--class Persona--><g id="elem_Persona"><rect codeLine="35" fill="#F1F1F1" height="178.3477" id="Persona" rx="2.5" ry="2.5" style="stroke:#181818;stroke-width:0.5;" width="236.1367" x="227.5" y="504"/><ellipse cx="315.2461" cy="520" fill="#ADD1B2" rx="11" ry="11" style="stroke:#181818;stroke-width:1.0;"/><path d="M318.0117,515.875 Q318.168,515.6563 318.3555,515.5469 Q318.543,515.4375 318.7617,515.4375 Q319.1367,515.4375 319.3711,515.7031 Q319.6055,515.9531 319.6055,516.5625 L319.6055,518.0156 Q319.6055,518.625 319.3711,518.8906 Q319.1367,519.1563 318.7617,519.1563 Q318.418,519.1563 318.2148,518.9531 Q318.0117,518.7656 317.9023,518.25 Q317.8555,517.8906 317.668,517.7031 Q317.3398,517.3281 316.7305,517.1094 Q316.1211,516.8906 315.4961,516.8906 Q314.7305,516.8906 314.0898,517.2188 Q313.4648,517.5469 312.9648,518.2969 Q312.4805,519.0469 312.4805,520.0781 L312.4805,521.1719 Q312.4805,522.4063 313.3711,523.2344 Q314.2617,524.0469 315.8555,524.0469 Q316.793,524.0469 317.4492,523.7969 Q317.8398,523.6406 318.2617,523.2031 Q318.5273,522.9375 318.668,522.8594 Q318.8242,522.7813 319.0273,522.7813 Q319.3555,522.7813 319.6055,523.0469 Q319.8711,523.2969 319.8711,523.6406 Q319.8711,523.9844 319.5273,524.3906 Q319.0273,524.9688 318.2305,525.2969 Q317.1523,525.75 315.8555,525.75 Q314.3398,525.75 313.1367,525.125 Q312.1523,524.625 311.4648,523.5625 Q310.7773,522.4844 310.7773,521.2031 L310.7773,520.0469 Q310.7773,518.7188 311.3867,517.5781 Q312.0117,516.4219 313.1055,515.8125 Q314.1992,515.1875 315.4336,515.1875 Q316.168,515.1875 316.8086,515.3594 Q317.4648,515.5156 318.0117,515.875 Z " fill="#000000"/><text fill="#000000" font-family="sans-serif" font-size="14" lengthAdjust="spacing" textLength="52.1445" x="335.7461" y="525.7969">Persona</text><line style="stroke:#181818;stroke-width:0.5;" x1="228.5" x2="462.6367" y1="536" y2="536"/><rect fill="none" height="6" style="stroke:#C82930;stroke-width:1.0;" width="6" x="235.5" y="547.8105"/><text fill="#000000" font-family="sans-serif" font-size="14" lengthAdjust="spacing" textLength="87.9307" x="247.5" y="555.1074">String nombre</text><rect fill="none" height="6" style="stroke:#C82930;stroke-width:1.0;" width="6" x="235.5" y="566.4316"/><text fill="#000000" font-family="sans-serif" font-size="14" lengthAdjust="spacing" textLength="95.7236" x="247.5" y="573.7285">String apellidos</text><rect fill="none" height="6" style="stroke:#C82930;stroke-width:1.0;" width="6" x="235.5" y="585.0527"/><text fill="#000000" font-family="sans-serif" font-size="14" lengthAdjust="spacing" textLength="59.1445" x="247.5" y="592.3496">String dni</text><rect fill="none" height="6" style="stroke:#C82930;stroke-width:1.0;" width="6" x="235.5" y="603.6738"/><text fill="#000000" font-family="sans-serif" font-size="14" lengthAdjust="spacing" textLength="112.0615" x="247.5" y="610.9707">int a&#241;oNacimiento</text><rect fill="none" height="6" style="stroke:#C82930;stroke-width:1.0;" width="6" x="235.5" y="622.2949"/><text fill="#000000" font-family="sans-serif" font-size="14" lengthAdjust="spacing" textLength="210.1367" x="247.5" y="629.5918">LocalDate fechaCaducidadCarnet</text><line style="stroke:#181818;stroke-width:0.5;" x1="228.5" x2="462.6367" y1="637.1055" y2="637.1055"/><ellipse cx="238.5" cy="651.916" fill="#84BE84" rx="3" ry="3" style="stroke:#038048;stroke-width:1.0;"/><text fill="#000000" font-family="sans-serif" font-size="14" lengthAdjust="spacing" textLength="128.3926" x="247.5" y="656.2129">boolean validarDNI()</text><ellipse cx="238.5" cy="670.5371" fill="#84BE84" rx="3" ry="3" style="stroke:#038048;stroke-width:1.0;"/><text fill="#000000" font-family="sans-serif" font-size="14" lengthAdjust="spacing" textLength="80.1582" x="247.5" y="674.834">int getEdad()</text></g><!--class Coche--><g id="elem_Coche"><rect codeLine="46" fill="#F1F1F1" height="103.8633" id="Coche" rx="2.5" ry="2.5" style="stroke:#181818;stroke-width:0.5;" width="211.2061" x="499" y="541"/><ellipse cx="580.1187" cy="557" fill="#ADD1B2" rx="11" ry="11" style="stroke:#181818;stroke-width:1.0;"/><path d="M582.8843,552.875 Q583.0405,552.6563 583.228,552.5469 Q583.4155,552.4375 583.6343,552.4375 Q584.0093,552.4375 584.2437,552.7031 Q584.478,552.9531 584.478,553.5625 L584.478,555.0156 Q584.478,555.625 584.2437,555.8906 Q584.0093,556.1563 583.6343,556.1563 Q583.2905,556.1563 583.0874,555.9531 Q582.8843,555.7656 582.7749,555.25 Q582.728,554.8906 582.5405,554.7031 Q582.2124,554.3281 581.603,554.1094 Q580.9937,553.8906 580.3687,553.8906 Q579.603,553.8906 578.9624,554.2188 Q578.3374,554.5469 577.8374,555.2969 Q577.353,556.0469 577.353,557.0781 L577.353,558.1719 Q577.353,559.4063 578.2437,560.2344 Q579.1343,561.0469 580.728,561.0469 Q581.6655,561.0469 582.3218,560.7969 Q582.7124,560.6406 583.1343,560.2031 Q583.3999,559.9375 583.5405,559.8594 Q583.6968,559.7813 583.8999,559.7813 Q584.228,559.7813 584.478,560.0469 Q584.7437,560.2969 584.7437,560.6406 Q584.7437,560.9844 584.3999,561.3906 Q583.8999,561.9688 583.103,562.2969 Q582.0249,562.75 580.728,562.75 Q579.2124,562.75 578.0093,562.125 Q577.0249,561.625 576.3374,560.5625 Q575.6499,559.4844 575.6499,558.2031 L575.6499,557.0469 Q575.6499,555.7188 576.2593,554.5781 Q576.8843,553.4219 577.978,552.8125 Q579.0718,552.1875 580.3062,552.1875 Q581.0405,552.1875 581.6812,552.3594 Q582.3374,552.5156 582.8843,552.875 Z " fill="#000000"/><text fill="#000000" font-family="sans-serif" font-size="14" lengthAdjust="spacing" textLength="40.4688" x="600.6187" y="562.7969">Coche</text><line style="stroke:#181818;stroke-width:0.5;" x1="500" x2="709.2061" y1="573" y2="573"/><rect fill="none" height="6" style="stroke:#C82930;stroke-width:1.0;" width="6" x="507" y="584.8105"/><text fill="#000000" font-family="sans-serif" font-size="14" lengthAdjust="spacing" textLength="94.1582" x="519" y="592.1074">int numPuertas</text><rect fill="none" height="6" style="stroke:#C82930;stroke-width:1.0;" width="6" x="507" y="603.4316"/><text fill="#000000" font-family="sans-serif" font-size="14" lengthAdjust="spacing" textLength="94.165" x="519" y="610.7285">TipoCoche tipo</text><line style="stroke:#181818;stroke-width:0.5;" x1="500" x2="709.2061" y1="618.2422" y2="618.2422"/><ellipse cx="510" cy="633.0527" fill="#84BE84" rx="3" ry="3" style="stroke:#038048;stroke-width:1.0;"/><text fill="#000000" font-family="sans-serif" font-size="14" lengthAdjust="spacing" textLength="185.2061" x="519" y="637.3496">double calcularDepreciacion()</text></g><!--class Moto--><g id="elem_Moto"><rect codeLine="52" fill="#F1F1F1" height="103.8633" id="Moto" rx="2.5" ry="2.5" style="stroke:#181818;stroke-width:0.5;" width="211.2061" x="745" y="541"/><ellipse cx="830.791" cy="557" fill="#ADD1B2" rx="11" ry="11" style="stroke:#181818;stroke-width:1.0;"/><path d="M833.5566,552.875 Q833.7129,552.6563 833.9004,552.5469 Q834.0879,552.4375 834.3066,552.4375 Q834.6816,552.4375 834.916,552.7031 Q835.1504,552.9531 835.1504,553.5625 L835.1504,555.0156 Q835.1504,555.625 834.916,555.8906 Q834.6816,556.1563 834.3066,556.1563 Q833.9629,556.1563 833.7598,555.9531 Q833.5566,555.7656 833.4473,555.25 Q833.4004,554.8906 833.2129,554.7031 Q832.8848,554.3281 832.2754,554.1094 Q831.666,553.8906 831.041,553.8906 Q830.2754,553.8906 829.6348,554.2188 Q829.0098,554.5469 828.5098,555.2969 Q828.0254,556.0469 828.0254,557.0781 L828.0254,558.1719 Q828.0254,559.4063 828.916,560.2344 Q829.8066,561.0469 831.4004,561.0469 Q832.3379,561.0469 832.9941,560.7969 Q833.3848,560.6406 833.8066,560.2031 Q834.0723,559.9375 834.2129,559.8594 Q834.3691,559.7813 834.5723,559.7813 Q834.9004,559.7813 835.1504,560.0469 Q835.416,560.2969 835.416,560.6406 Q835.416,560.9844 835.0723,561.3906 Q834.5723,561.9688 833.7754,562.2969 Q832.6973,562.75 831.4004,562.75 Q829.8848,562.75 828.6816,562.125 Q827.6973,561.625 827.0098,560.5625 Q826.3223,559.4844 826.3223,558.2031 L826.3223,557.0469 Q826.3223,555.7188 826.9316,554.5781 Q827.5566,553.4219 828.6504,552.8125 Q829.7441,552.1875 830.9785,552.1875 Q831.7129,552.1875 832.3535,552.3594 Q833.0098,552.5156 833.5566,552.875 Z " fill="#000000"/><text fill="#000000" font-family="sans-serif" font-size="14" lengthAdjust="spacing" textLength="31.124" x="851.291" y="562.7969">Moto</text><line style="stroke:#181818;stroke-width:0.5;" x1="746" x2="955.2061" y1="573" y2="573"/><rect fill="none" height="6" style="stroke:#C82930;stroke-width:1.0;" width="6" x="753" y="584.8105"/><text fill="#000000" font-family="sans-serif" font-size="14" lengthAdjust="spacing" textLength="78.5996" x="765" y="592.1074">int cilindrada</text><rect fill="none" height="6" style="stroke:#C82930;stroke-width:1.0;" width="6" x="753" y="603.4316"/><text fill="#000000" font-family="sans-serif" font-size="14" lengthAdjust="spacing" textLength="84.8203" x="765" y="610.7285">TipoMoto tipo</text><line style="stroke:#181818;stroke-width:0.5;" x1="746" x2="955.2061" y1="618.2422" y2="618.2422"/><ellipse cx="756" cy="633.0527" fill="#84BE84" rx="3" ry="3" style="stroke:#038048;stroke-width:1.0;"/><text fill="#000000" font-family="sans-serif" font-size="14" lengthAdjust="spacing" textLength="185.2061" x="765" y="637.3496">double calcularDepreciacion()</text></g><!--class Camion--><g id="elem_Camion"><rect codeLine="58" fill="#F1F1F1" height="103.8633" id="Camion" rx="2.5" ry="2.5" style="stroke:#181818;stroke-width:0.5;" width="211.2061" x="991" y="541"/><ellipse cx="1068.2324" cy="557" fill="#ADD1B2" rx="11" ry="11" style="stroke:#181818;stroke-width:1.0;"/><path d="M1070.998,552.875 Q1071.1543,552.6563 1071.3418,552.5469 Q1071.5293,552.4375 1071.748,552.4375 Q1072.123,552.4375 1072.3574,552.7031 Q1072.5918,552.9531 1072.5918,553.5625 L1072.5918,555.0156 Q1072.5918,555.625 1072.3574,555.8906 Q1072.123,556.1563 1071.748,556.1563 Q1071.4043,556.1563 1071.2012,555.9531 Q1070.998,555.7656 1070.8887,555.25 Q1070.8418,554.8906 1070.6543,554.7031 Q1070.3262,554.3281 1069.7168,554.1094 Q1069.1074,553.8906 1068.4824,553.8906 Q1067.7168,553.8906 1067.0762,554.2188 Q1066.4512,554.5469 1065.9512,555.2969 Q1065.4668,556.0469 1065.4668,557.0781 L1065.4668,558.1719 Q1065.4668,559.4063 1066.3574,560.2344 Q1067.248,561.0469 1068.8418,561.0469 Q1069.7793,561.0469 1070.4355,560.7969 Q1070.8262,560.6406 1071.248,560.2031 Q1071.5137,559.9375 1071.6543,559.8594 Q1071.8105,559.7813 1072.0137,559.7813 Q1072.3418,559.7813 1072.5918,560.0469 Q1072.8574,560.2969 1072.8574,560.6406 Q1072.8574,560.9844 1072.5137,561.3906 Q1072.0137,561.9688 1071.2168,562.2969 Q1070.1387,562.75 1068.8418,562.75 Q1067.3262,562.75 1066.123,562.125 Q1065.1387,561.625 1064.4512,560.5625 Q1063.7637,559.4844 1063.7637,558.2031 L1063.7637,557.0469 Q1063.7637,555.7188 1064.373,554.5781 Q1064.998,553.4219 1066.0918,552.8125 Q1067.1855,552.1875 1068.4199,552.1875 Q1069.1543,552.1875 1069.7949,552.3594 Q1070.4512,552.5156 1070.998,552.875 Z " fill="#000000"/><text fill="#000000" font-family="sans-serif" font-size="14" lengthAdjust="spacing" textLength="48.2412" x="1088.7324" y="562.7969">Camion</text><line style="stroke:#181818;stroke-width:0.5;" x1="992" x2="1201.2061" y1="573" y2="573"/><rect fill="none" height="6" style="stroke:#C82930;stroke-width:1.0;" width="6" x="999" y="584.8105"/><text fill="#000000" font-family="sans-serif" font-size="14" lengthAdjust="spacing" textLength="147.8887" x="1011" y="592.1074">double capacidadCarga</text><rect fill="none" height="6" style="stroke:#C82930;stroke-width:1.0;" width="6" x="999" y="603.4316"/><text fill="#000000" font-family="sans-serif" font-size="14" lengthAdjust="spacing" textLength="44.3584" x="1011" y="610.7285">int ejes</text><line style="stroke:#181818;stroke-width:0.5;" x1="992" x2="1201.2061" y1="618.2422" y2="618.2422"/><ellipse cx="1002" cy="633.0527" fill="#84BE84" rx="3" ry="3" style="stroke:#038048;stroke-width:1.0;"/><text fill="#000000" font-family="sans-serif" font-size="14" lengthAdjust="spacing" textLength="185.2061" x="1011" y="637.3496">double calcularDepreciacion()</text></g><!--class SUV--><g id="elem_SUV"><rect codeLine="65" fill="#F1F1F1" height="103.8633" id="SUV" rx="2.5" ry="2.5" style="stroke:#181818;stroke-width:0.5;" width="211.2061" x="7" y="743"/><ellipse cx="93.96" cy="759" fill="#ADD1B2" rx="11" ry="11" style="stroke:#181818;stroke-width:1.0;"/><path d="M96.7256,754.875 Q96.8818,754.6563 97.0693,754.5469 Q97.2568,754.4375 97.4756,754.4375 Q97.8506,754.4375 98.085,754.7031 Q98.3193,754.9531 98.3193,755.5625 L98.3193,757.0156 Q98.3193,757.625 98.085,757.8906 Q97.8506,758.1563 97.4756,758.1563 Q97.1318,758.1563 96.9287,757.9531 Q96.7256,757.7656 96.6162,757.25 Q96.5693,756.8906 96.3818,756.7031 Q96.0537,756.3281 95.4443,756.1094 Q94.835,755.8906 94.21,755.8906 Q93.4443,755.8906 92.8037,756.2188 Q92.1787,756.5469 91.6787,757.2969 Q91.1943,758.0469 91.1943,759.0781 L91.1943,760.1719 Q91.1943,761.4063 92.085,762.2344 Q92.9756,763.0469 94.5693,763.0469 Q95.5068,763.0469 96.1631,762.7969 Q96.5537,762.6406 96.9756,762.2031 Q97.2412,761.9375 97.3818,761.8594 Q97.5381,761.7813 97.7412,761.7813 Q98.0693,761.7813 98.3193,762.0469 Q98.585,762.2969 98.585,762.6406 Q98.585,762.9844 98.2412,763.3906 Q97.7412,763.9688 96.9443,764.2969 Q95.8662,764.75 94.5693,764.75 Q93.0537,764.75 91.8506,764.125 Q90.8662,763.625 90.1787,762.5625 Q89.4912,761.4844 89.4912,760.2031 L89.4912,759.0469 Q89.4912,757.7188 90.1006,756.5781 Q90.7256,755.4219 91.8193,754.8125 Q92.9131,754.1875 94.1475,754.1875 Q94.8818,754.1875 95.5225,754.3594 Q96.1787,754.5156 96.7256,754.875 Z " fill="#000000"/><text fill="#000000" font-family="sans-serif" font-size="14" lengthAdjust="spacing" textLength="28.7861" x="114.46" y="764.7969">SUV</text><line style="stroke:#181818;stroke-width:0.5;" x1="8" x2="217.2061" y1="775" y2="775"/><rect fill="none" height="6" style="stroke:#C82930;stroke-width:1.0;" width="6" x="15" y="786.8105"/><text fill="#000000" font-family="sans-serif" font-size="14" lengthAdjust="spacing" textLength="125.3096" x="27" y="794.1074">boolean traccion4x4</text><rect fill="none" height="6" style="stroke:#C82930;stroke-width:1.0;" width="6" x="15" y="805.4316"/><text fill="#000000" font-family="sans-serif" font-size="14" lengthAdjust="spacing" textLength="154.1162" x="27" y="812.7285">double alturaSuspension</text><line style="stroke:#181818;stroke-width:0.5;" x1="8" x2="217.2061" y1="820.2422" y2="820.2422"/><ellipse cx="18" cy="835.0527" fill="#84BE84" rx="3" ry="3" style="stroke:#038048;stroke-width:1.0;"/><text fill="#000000" font-family="sans-serif" font-size="14" lengthAdjust="spacing" textLength="185.2061" x="27" y="839.3496">double calcularDepreciacion()</text></g><!--class Sedan--><g id="elem_Sedan"><rect codeLine="71" fill="#F1F1F1" height="85.2422" id="Sedan" rx="2.5" ry="2.5" style="stroke:#181818;stroke-width:0.5;" width="211.2061" x="253" y="752.5"/><ellipse cx="334.1118" cy="768.5" fill="#ADD1B2" rx="11" ry="11" style="stroke:#181818;stroke-width:1.0;"/><path d="M336.8774,764.375 Q337.0337,764.1563 337.2212,764.0469 Q337.4087,763.9375 337.6274,763.9375 Q338.0024,763.9375 338.2368,764.2031 Q338.4712,764.4531 338.4712,765.0625 L338.4712,766.5156 Q338.4712,767.125 338.2368,767.3906 Q338.0024,767.6563 337.6274,767.6563 Q337.2837,767.6563 337.0806,767.4531 Q336.8774,767.2656 336.7681,766.75 Q336.7212,766.3906 336.5337,766.2031 Q336.2056,765.8281 335.5962,765.6094 Q334.9868,765.3906 334.3618,765.3906 Q333.5962,765.3906 332.9556,765.7188 Q332.3306,766.0469 331.8306,766.7969 Q331.3462,767.5469 331.3462,768.5781 L331.3462,769.6719 Q331.3462,770.9063 332.2368,771.7344 Q333.1274,772.5469 334.7212,772.5469 Q335.6587,772.5469 336.3149,772.2969 Q336.7056,772.1406 337.1274,771.7031 Q337.3931,771.4375 337.5337,771.3594 Q337.6899,771.2813 337.8931,771.2813 Q338.2212,771.2813 338.4712,771.5469 Q338.7368,771.7969 338.7368,772.1406 Q338.7368,772.4844 338.3931,772.8906 Q337.8931,773.4688 337.0962,773.7969 Q336.0181,774.25 334.7212,774.25 Q333.2056,774.25 332.0024,773.625 Q331.0181,773.125 330.3306,772.0625 Q329.6431,770.9844 329.6431,769.7031 L329.6431,768.5469 Q329.6431,767.2188 330.2524,766.0781 Q330.8774,764.9219 331.9712,764.3125 Q333.0649,763.6875 334.2993,763.6875 Q335.0337,763.6875 335.6743,763.8594 Q336.3306,764.0156 336.8774,764.375 Z " fill="#000000"/><text fill="#000000" font-family="sans-serif" font-size="14" lengthAdjust="spacing" textLength="40.4824" x="354.6118" y="774.2969">Sedan</text><line style="stroke:#181818;stroke-width:0.5;" x1="254" x2="463.2061" y1="784.5" y2="784.5"/><rect fill="none" height="6" style="stroke:#C82930;stroke-width:1.0;" width="6" x="261" y="796.3105"/><text fill="#000000" font-family="sans-serif" font-size="14" lengthAdjust="spacing" textLength="154.8818" x="273" y="803.6074">boolean maleteroGrande</text><line style="stroke:#181818;stroke-width:0.5;" x1="254" x2="463.2061" y1="811.1211" y2="811.1211"/><ellipse cx="264" cy="825.9316" fill="#84BE84" rx="3" ry="3" style="stroke:#038048;stroke-width:1.0;"/><text fill="#000000" font-family="sans-serif" font-size="14" lengthAdjust="spacing" textLength="185.2061" x="273" y="830.2285">double calcularDepreciacion()</text></g><!--class Deportivo--><g id="elem_Deportivo"><rect codeLine="76" fill="#F1F1F1" height="85.2422" id="Deportivo" rx="2.5" ry="2.5" style="stroke:#181818;stroke-width:0.5;" width="211.2061" x="499" y="752.5"/><ellipse cx="570.3945" cy="768.5" fill="#ADD1B2" rx="11" ry="11" style="stroke:#181818;stroke-width:1.0;"/><path d="M573.1602,764.375 Q573.3164,764.1563 573.5039,764.0469 Q573.6914,763.9375 573.9102,763.9375 Q574.2852,763.9375 574.5195,764.2031 Q574.7539,764.4531 574.7539,765.0625 L574.7539,766.5156 Q574.7539,767.125 574.5195,767.3906 Q574.2852,767.6563 573.9102,767.6563 Q573.5664,767.6563 573.3633,767.4531 Q573.1602,767.2656 573.0508,766.75 Q573.0039,766.3906 572.8164,766.2031 Q572.4883,765.8281 571.8789,765.6094 Q571.2695,765.3906 570.6445,765.3906 Q569.8789,765.3906 569.2383,765.7188 Q568.6133,766.0469 568.1133,766.7969 Q567.6289,767.5469 567.6289,768.5781 L567.6289,769.6719 Q567.6289,770.9063 568.5195,771.7344 Q569.4102,772.5469 571.0039,772.5469 Q571.9414,772.5469 572.5977,772.2969 Q572.9883,772.1406 573.4102,771.7031 Q573.6758,771.4375 573.8164,771.3594 Q573.9727,771.2813 574.1758,771.2813 Q574.5039,771.2813 574.7539,771.5469 Q575.0195,771.7969 575.0195,772.1406 Q575.0195,772.4844 574.6758,772.8906 Q574.1758,773.4688 573.3789,773.7969 Q572.3008,774.25 571.0039,774.25 Q569.4883,774.25 568.2852,773.625 Q567.3008,773.125 566.6133,772.0625 Q565.9258,770.9844 565.9258,769.7031 L565.9258,768.5469 Q565.9258,767.2188 566.5352,766.0781 Q567.1602,764.9219 568.2539,764.3125 Q569.3477,763.6875 570.582,763.6875 Q571.3164,763.6875 571.957,763.8594 Q572.6133,764.0156 573.1602,764.375 Z " fill="#000000"/><text fill="#000000" font-family="sans-serif" font-size="14" lengthAdjust="spacing" textLength="59.917" x="590.8945" y="774.2969">Deportivo</text><line style="stroke:#181818;stroke-width:0.5;" x1="500" x2="709.2061" y1="784.5" y2="784.5"/><rect fill="none" height="6" style="stroke:#C82930;stroke-width:1.0;" width="6" x="507" y="796.3105"/><text fill="#000000" font-family="sans-serif" font-size="14" lengthAdjust="spacing" textLength="156.4609" x="519" y="803.6074">double aceleracion0a100</text><line style="stroke:#181818;stroke-width:0.5;" x1="500" x2="709.2061" y1="811.1211" y2="811.1211"/><ellipse cx="510" cy="825.9316" fill="#84BE84" rx="3" ry="3" style="stroke:#038048;stroke-width:1.0;"/><text fill="#000000" font-family="sans-serif" font-size="14" lengthAdjust="spacing" textLength="185.2061" x="519" y="830.2285">double calcularDepreciacion()</text></g><!--class Scooter--><g id="elem_Scooter"><rect codeLine="82" fill="#F1F1F1" height="85.2422" id="Scooter" rx="2.5" ry="2.5" style="stroke:#181818;stroke-width:0.5;" width="211.2061" x="745" y="752.5"/><ellipse cx="822.229" cy="768.5" fill="#ADD1B2" rx="11" ry="11" style="stroke:#181818;stroke-width:1.0;"/><path d="M824.9946,764.375 Q825.1509,764.1563 825.3384,764.0469 Q825.5259,763.9375 825.7446,763.9375 Q826.1196,763.9375 826.354,764.2031 Q826.5884,764.4531 826.5884,765.0625 L826.5884,766.5156 Q826.5884,767.125 826.354,767.3906 Q826.1196,767.6563 825.7446,767.6563 Q825.4009,767.6563 825.1978,767.4531 Q824.9946,767.2656 824.8853,766.75 Q824.8384,766.3906 824.6509,766.2031 Q824.3228,765.8281 823.7134,765.6094 Q823.104,765.3906 822.479,765.3906 Q821.7134,765.3906 821.0728,765.7188 Q820.4478,766.0469 819.9478,766.7969 Q819.4634,767.5469 819.4634,768.5781 L819.4634,769.6719 Q819.4634,770.9063 820.354,771.7344 Q821.2446,772.5469 822.8384,772.5469 Q823.7759,772.5469 824.4321,772.2969 Q824.8228,772.1406 825.2446,771.7031 Q825.5103,771.4375 825.6509,771.3594 Q825.8071,771.2813 826.0103,771.2813 Q826.3384,771.2813 826.5884,771.5469 Q826.854,771.7969 826.854,772.1406 Q826.854,772.4844 826.5103,772.8906 Q826.0103,773.4688 825.2134,773.7969 Q824.1353,774.25 822.8384,774.25 Q821.3228,774.25 820.1196,773.625 Q819.1353,773.125 818.4478,772.0625 Q817.7603,770.9844 817.7603,769.7031 L817.7603,768.5469 Q817.7603,767.2188 818.3696,766.0781 Q818.9946,764.9219 820.0884,764.3125 Q821.1821,763.6875 822.4165,763.6875 Q823.1509,763.6875 823.7915,763.8594 Q824.4478,764.0156 824.9946,764.375 Z " fill="#000000"/><text fill="#000000" font-family="sans-serif" font-size="14" lengthAdjust="spacing" textLength="48.248" x="842.729" y="774.2969">Scooter</text><line style="stroke:#181818;stroke-width:0.5;" x1="746" x2="955.2061" y1="784.5" y2="784.5"/><rect fill="none" height="6" style="stroke:#C82930;stroke-width:1.0;" width="6" x="753" y="796.3105"/><text fill="#000000" font-family="sans-serif" font-size="14" lengthAdjust="spacing" textLength="98.8477" x="765" y="803.6074">boolean maletin</text><line style="stroke:#181818;stroke-width:0.5;" x1="746" x2="955.2061" y1="811.1211" y2="811.1211"/><ellipse cx="756" cy="825.9316" fill="#84BE84" rx="3" ry="3" style="stroke:#038048;stroke-width:1.0;"/><text fill="#000000" font-family="sans-serif" font-size="14" lengthAdjust="spacing" textLength="185.2061" x="765" y="830.2285">double calcularDepreciacion()</text></g><!--class MotoDeportiva--><g id="elem_MotoDeportiva"><rect codeLine="87" fill="#F1F1F1" height="85.2422" id="MotoDeportiva" rx="2.5" ry="2.5" style="stroke:#181818;stroke-width:0.5;" width="211.2061" x="991" y="752.5"/><ellipse cx="1046.8325" cy="768.5" fill="#ADD1B2" rx="11" ry="11" style="stroke:#181818;stroke-width:1.0;"/><path d="M1049.5981,764.375 Q1049.7544,764.1563 1049.9419,764.0469 Q1050.1294,763.9375 1050.3481,763.9375 Q1050.7231,763.9375 1050.9575,764.2031 Q1051.1919,764.4531 1051.1919,765.0625 L1051.1919,766.5156 Q1051.1919,767.125 1050.9575,767.3906 Q1050.7231,767.6563 1050.3481,767.6563 Q1050.0044,767.6563 1049.8013,767.4531 Q1049.5981,767.2656 1049.4888,766.75 Q1049.4419,766.3906 1049.2544,766.2031 Q1048.9263,765.8281 1048.3169,765.6094 Q1047.7075,765.3906 1047.0825,765.3906 Q1046.3169,765.3906 1045.6763,765.7188 Q1045.0513,766.0469 1044.5513,766.7969 Q1044.0669,767.5469 1044.0669,768.5781 L1044.0669,769.6719 Q1044.0669,770.9063 1044.9575,771.7344 Q1045.8481,772.5469 1047.4419,772.5469 Q1048.3794,772.5469 1049.0356,772.2969 Q1049.4263,772.1406 1049.8481,771.7031 Q1050.1138,771.4375 1050.2544,771.3594 Q1050.4106,771.2813 1050.6138,771.2813 Q1050.9419,771.2813 1051.1919,771.5469 Q1051.4575,771.7969 1051.4575,772.1406 Q1051.4575,772.4844 1051.1138,772.8906 Q1050.6138,773.4688 1049.8169,773.7969 Q1048.7388,774.25 1047.4419,774.25 Q1045.9263,774.25 1044.7231,773.625 Q1043.7388,773.125 1043.0513,772.0625 Q1042.3638,770.9844 1042.3638,769.7031 L1042.3638,768.5469 Q1042.3638,767.2188 1042.9731,766.0781 Q1043.5981,764.9219 1044.6919,764.3125 Q1045.7856,763.6875 1047.02,763.6875 Q1047.7544,763.6875 1048.395,763.8594 Q1049.0513,764.0156 1049.5981,764.375 Z " fill="#000000"/><text fill="#000000" font-family="sans-serif" font-size="14" lengthAdjust="spacing" textLength="91.041" x="1067.3325" y="774.2969">MotoDeportiva</text><line style="stroke:#181818;stroke-width:0.5;" x1="992" x2="1201.2061" y1="784.5" y2="784.5"/><rect fill="none" height="6" style="stroke:#C82930;stroke-width:1.0;" width="6" x="999" y="796.3105"/><text fill="#000000" font-family="sans-serif" font-size="14" lengthAdjust="spacing" textLength="112.0957" x="1011" y="803.6074">boolean carenado</text><line style="stroke:#181818;stroke-width:0.5;" x1="992" x2="1201.2061" y1="811.1211" y2="811.1211"/><ellipse cx="1002" cy="825.9316" fill="#84BE84" rx="3" ry="3" style="stroke:#038048;stroke-width:1.0;"/><text fill="#000000" font-family="sans-serif" font-size="14" lengthAdjust="spacing" textLength="185.2061" x="1011" y="830.2285">double calcularDepreciacion()</text></g><!--reverse link Valorable to Vehiculo--><g id="link_Valorable_Vehiculo"><path d="M758.5,110.53 C758.5,131.55 758.5,142.4 758.5,171.82 " fill="none" id="Valorable-backto-Vehiculo" style="stroke:#181818;stroke-width:1.0;stroke-dasharray:7.0,7.0;"/><polygon fill="none" points="758.5,92.53,752.5,110.53,764.5,110.53,758.5,92.53" style="stroke:#181818;stroke-width:1.0;"/></g><!--reverse link Vehiculo to Coche--><g id="link_Vehiculo_Coche"><path d="M683.9156,441.168 C662.4756,481.898 648.28,508.85 631.39,540.94 " fill="none" id="Vehiculo-backto-Coche" style="stroke:#181818;stroke-width:1.0;"/><polygon fill="none" points="692.3,425.24,678.6063,438.3732,689.2249,443.9628,692.3,425.24" style="stroke:#181818;stroke-width:1.0;"/></g><!--reverse link Vehiculo to Moto--><g id="link_Vehiculo_Moto"><path d="M803.4504,442.4108 C816.2604,483.1408 824.35,508.85 834.44,540.94 " fill="none" id="Vehiculo-backto-Moto" style="stroke:#181818;stroke-width:1.0;"/><polygon fill="none" points="798.05,425.24,797.7268,444.2109,809.174,440.6107,798.05,425.24" style="stroke:#181818;stroke-width:1.0;"/></g><!--reverse link Vehiculo to Camion--><g id="link_Vehiculo_Camion"><path d="M917.4103,437.0196 C964.4703,477.7496 1000.42,508.85 1037.49,540.94 " fill="none" id="Vehiculo-backto-Camion" style="stroke:#181818;stroke-width:1.0;"/><polygon fill="none" points="903.8,425.24,913.4838,441.5564,921.3369,432.4828,903.8,425.24" style="stroke:#181818;stroke-width:1.0;"/></g><!--reverse link Coche to SUV--><g id="link_Coche_SUV"><path d="M527.3454,655.6799 C508.4654,669.1999 501.73,672.25 480.5,682 C378.53,728.84 342.07,707.86 235.5,743 C229.79,744.88 223.97,746.91 218.13,749.03 " fill="none" id="Coche-backto-SUV" style="stroke:#181818;stroke-width:1.0;"/><polygon fill="none" points="541.98,645.2,523.8521,650.8017,530.8387,660.5581,541.98,645.2" style="stroke:#181818;stroke-width:1.0;"/></g><!--reverse link Coche to Sedan--><g id="link_Coche_Sedan"><path d="M527.5018,656.603 C486.6418,689.813 448.07,721.18 409.78,752.31 " fill="none" id="Coche-backto-Sedan" style="stroke:#181818;stroke-width:1.0;"/><polygon fill="none" points="541.47,645.25,523.7175,651.9469,531.2862,661.259,541.47,645.25" style="stroke:#181818;stroke-width:1.0;"/></g><!--reverse link Coche to Deportivo--><g id="link_Coche_Deportivo"><path d="M604.5,663.25 C604.5,696.46 604.5,721.18 604.5,752.31 " fill="none" id="Coche-backto-Deportivo" style="stroke:#181818;stroke-width:1.0;"/><polygon fill="none" points="604.5,645.25,598.5,663.25,610.5,663.25,604.5,645.25" style="stroke:#181818;stroke-width:1.0;"/></g><!--reverse link Moto to Scooter--><g id="link_Moto_Scooter"><path d="M850.5,663.25 C850.5,696.46 850.5,721.18 850.5,752.31 " fill="none" id="Moto-backto-Scooter" style="stroke:#181818;stroke-width:1.0;"/><polygon fill="none" points="850.5,645.25,844.5,663.25,856.5,663.25,850.5,645.25" style="stroke:#181818;stroke-width:1.0;"/></g><!--reverse link Moto to MotoDeportiva--><g id="link_Moto_MotoDeportiva"><path d="M927.4982,656.603 C968.3582,689.813 1006.93,721.18 1045.22,752.31 " fill="none" id="Moto-backto-MotoDeportiva" style="stroke:#181818;stroke-width:1.0;"/><polygon fill="none" points="913.53,645.25,923.7138,661.259,931.2825,651.9469,913.53,645.25" style="stroke:#181818;stroke-width:1.0;"/></g><!--reverse link Vehiculo to Persona--><g id="link_Vehiculo_Persona"><path codeLine="93" d="M584.5881,422.6668 C540.9281,453.5968 504.41,479.46 463.73,508.26 " fill="none" id="Vehiculo-backto-Persona" style="stroke:#181818;stroke-width:1.0;"/><polygon fill="#181818" points="594.38,415.73,587.1718,415.9345,584.5881,422.6668,591.7964,422.4624,594.38,415.73" style="stroke:#181818;stroke-width:1.0;"/><text fill="#000000" font-family="sans-serif" font-size="13" lengthAdjust="spacing" textLength="61.4263" x="528.5" y="470.0283">propietario</text><text fill="#000000" font-family="sans-serif" font-size="13" lengthAdjust="spacing" textLength="7.23" x="579.2678" y="418.036">1</text><text fill="#000000" font-family="sans-serif" font-size="13" lengthAdjust="spacing" textLength="21.6836" x="471.5911" y="499.6048">0..1</text></g><!--SRC=[dLJDRjim3BxxAOHUsgr8aG8zxLOusL1WJOAaovsHc5ITB1gI71GB-b337g4lDlf7Zft-h9albYYIt_TH54_5s1OPEf2QBFe4UIVkT4ufoNiKkqJmjnYFhYVrwiUo-e_6i-dyxcOvJPwIVSmj1OeXwNHwDvxtdAzBvrDnOmEwDVnATBsGA9PWoC7AHC1piOEL3ymgF0b5HNaYmSZ2W1jXxb3gYl3PfpfbQi2ZY26Gn9MGVE354kyrnvBGMMumGnly2yY1sAsr1VCa5i5fkn4PyBz4R8vRivE79b9egB6nAF5J6ygG6JnWOsqqLCoZvtTYIIC8ADOex-4hh1YlajKupD1vii1Hb6iCu9hG8wfJkn_up3Nw3PsLJF4nHwVHSaHALXKoa8jHZReDXjjOYZRZbhGI7iDiJ-ti5RgzwsdEa_fEelUkNqjBsSfXtmOv6gCL-RvPMTsfEJp_fWdBpbXDUAF4AR12hK2bu2o6HikAo21OiGK6uGfERbgPPMBMF-QGs6gBObKAG2yKjetLQAhV33u6jAhJTRiEJNugim9TW2Xc_zO2hrw_i9SjN-DLx-rTEAcDjig1WWvS5NOyMWePMzx6QzFa48kyWGuNV43_KSIgpYN5ginLVHeMF85Q2jqPDMZliNmOPQQhnwi-Cp2XSB0eV8xMnsVsOVaBL63_0Ps1GPvfzCs1LNXSVhQJ2tfBRs144H9DCww7S3aS_bz5onQ8kYGHSsvHEqFyG9YsnxTdL0NlvvVWq8AYZwkPe-7zynzRof6KiJ1TxPEsCKykJyJdmK2S32ykU1adpfVUGFqB]--></g></svg>