<svg xmlns="http://www.w3.org/2000/svg" xmlns:xlink="http://www.w3.org/1999/xlink" contentStyleType="text/css" height="558px" preserveAspectRatio="none" style="width:1272px;height:558px;background:#FFFFFF;" version="1.1" viewBox="0 0 1272 558" width="1272px" zoomAndPan="magnify"><defs/><g><!--class Vehiculo--><g id="elem_Vehiculo"><rect codeLine="2" fill="#F1F1F1" height="141.1055" id="Vehiculo" rx="2.5" ry="2.5" style="stroke:#181818;stroke-width:0.5;" width="139.6201" x="657" y="7"/><ellipse cx="696.2626" cy="23" fill="#A9DCDF" rx="11" ry="11" style="stroke:#181818;stroke-width:1.0;"/><path d="M698.4501,24.7656 L694.3095,24.7656 L693.8876,25.7969 L694.3095,25.7969 Q694.9189,25.7969 695.1845,26.0313 Q695.4501,26.2656 695.4501,26.6563 Q695.4501,27.0313 695.1845,27.2656 Q694.9189,27.5 694.3095,27.5 L692.0126,27.5 Q691.4033,27.5 691.1533,27.2656 Q690.8876,27.0313 690.8876,26.6406 Q690.8876,26.2656 691.1689,26.0313 Q691.4345,25.7813 692.0595,25.7969 L694.7314,19.1406 L693.622,19.1406 Q693.0126,19.1406 692.747,18.9063 Q692.4814,18.6719 692.4814,18.2813 Q692.4814,17.9063 692.747,17.6719 Q693.0126,17.4375 693.622,17.4375 L697.2939,17.4375 L700.6845,25.7969 Q701.2783,25.7969 701.4658,25.9375 Q701.8564,26.2031 701.8564,26.6563 Q701.8564,27.0313 701.5908,27.2656 Q701.3408,27.5 700.7314,27.5 L698.4345,27.5 Q697.8251,27.5 697.5595,27.2656 Q697.2939,27.0313 697.2939,26.6406 Q697.2939,26.2656 697.5595,26.0313 Q697.8251,25.7969 698.4345,25.7969 L698.8564,25.7969 L698.4501,24.7656 Z M697.7314,23.0625 L696.372,19.6875 L694.997,23.0625 L697.7314,23.0625 Z " fill="#000000"/><text fill="#000000" font-family="sans-serif" font-size="14" font-style="italic" lengthAdjust="spacing" textLength="53.7031" x="715.6543" y="28.7969">Vehiculo</text><line style="stroke:#181818;stroke-width:0.5;" x1="658" x2="795.6201" y1="39" y2="39"/><rect fill="none" height="6" style="stroke:#C82930;stroke-width:1.0;" width="6" x="665" y="50.8105"/><text fill="#000000" font-family="sans-serif" font-size="14" lengthAdjust="spacing" textLength="97.2549" x="677" y="58.1074">String matricula</text><rect fill="none" height="6" style="stroke:#C82930;stroke-width:1.0;" width="6" x="665" y="69.4316"/><text fill="#000000" font-family="sans-serif" font-size="14" lengthAdjust="spacing" textLength="79.3584" x="677" y="76.7285">String marca</text><rect fill="none" height="6" style="stroke:#C82930;stroke-width:1.0;" width="6" x="665" y="88.0527"/><text fill="#000000" font-family="sans-serif" font-size="14" lengthAdjust="spacing" textLength="86.3789" x="677" y="95.3496">String modelo</text><rect fill="none" height="6" style="stroke:#C82930;stroke-width:1.0;" width="6" x="665" y="106.6738"/><text fill="#000000" font-family="sans-serif" font-size="14" lengthAdjust="spacing" textLength="113.6201" x="677" y="113.9707">double kilometraje</text><rect fill="none" height="6" style="stroke:#C82930;stroke-width:1.0;" width="6" x="665" y="125.2949"/><text fill="#000000" font-family="sans-serif" font-size="14" lengthAdjust="spacing" textLength="84.0615" x="677" y="132.5918">double precio</text><line style="stroke:#181818;stroke-width:0.5;" x1="658" x2="795.6201" y1="140.1055" y2="140.1055"/></g><!--class Persona--><g id="elem_Persona"><rect codeLine="10" fill="#F1F1F1" height="159.7266" id="Persona" rx="2.5" ry="2.5" style="stroke:#181818;stroke-width:0.5;" width="236.1367" x="153" y="227"/><ellipse cx="240.7461" cy="243" fill="#ADD1B2" rx="11" ry="11" style="stroke:#181818;stroke-width:1.0;"/><path d="M243.5117,238.875 Q243.668,238.6563 243.8555,238.5469 Q244.043,238.4375 244.2617,238.4375 Q244.6367,238.4375 244.8711,238.7031 Q245.1055,238.9531 245.1055,239.5625 L245.1055,241.0156 Q245.1055,241.625 244.8711,241.8906 Q244.6367,242.1563 244.2617,242.1563 Q243.918,242.1563 243.7148,241.9531 Q243.5117,241.7656 243.4023,241.25 Q243.3555,240.8906 243.168,240.7031 Q242.8398,240.3281 242.2305,240.1094 Q241.6211,239.8906 240.9961,239.8906 Q240.2305,239.8906 239.5898,240.2188 Q238.9648,240.5469 238.4648,241.2969 Q237.9805,242.0469 237.9805,243.0781 L237.9805,244.1719 Q237.9805,245.4063 238.8711,246.2344 Q239.7617,247.0469 241.3555,247.0469 Q242.293,247.0469 242.9492,246.7969 Q243.3398,246.6406 243.7617,246.2031 Q244.0273,245.9375 244.168,245.8594 Q244.3242,245.7813 244.5273,245.7813 Q244.8555,245.7813 245.1055,246.0469 Q245.3711,246.2969 245.3711,246.6406 Q245.3711,246.9844 245.0273,247.3906 Q244.5273,247.9688 243.7305,248.2969 Q242.6523,248.75 241.3555,248.75 Q239.8398,248.75 238.6367,248.125 Q237.6523,247.625 236.9648,246.5625 Q236.2773,245.4844 236.2773,244.2031 L236.2773,243.0469 Q236.2773,241.7188 236.8867,240.5781 Q237.5117,239.4219 238.6055,238.8125 Q239.6992,238.1875 240.9336,238.1875 Q241.668,238.1875 242.3086,238.3594 Q242.9648,238.5156 243.5117,238.875 Z " fill="#000000"/><text fill="#000000" font-family="sans-serif" font-size="14" lengthAdjust="spacing" textLength="52.1445" x="261.2461" y="248.7969">Persona</text><line style="stroke:#181818;stroke-width:0.5;" x1="154" x2="388.1367" y1="259" y2="259"/><rect fill="none" height="6" style="stroke:#C82930;stroke-width:1.0;" width="6" x="161" y="270.8105"/><text fill="#000000" font-family="sans-serif" font-size="14" lengthAdjust="spacing" textLength="87.9307" x="173" y="278.1074">String nombre</text><rect fill="none" height="6" style="stroke:#C82930;stroke-width:1.0;" width="6" x="161" y="289.4316"/><text fill="#000000" font-family="sans-serif" font-size="14" lengthAdjust="spacing" textLength="95.7236" x="173" y="296.7285">String apellidos</text><rect fill="none" height="6" style="stroke:#C82930;stroke-width:1.0;" width="6" x="161" y="308.0527"/><text fill="#000000" font-family="sans-serif" font-size="14" lengthAdjust="spacing" textLength="59.1445" x="173" y="315.3496">String dni</text><rect fill="none" height="6" style="stroke:#C82930;stroke-width:1.0;" width="6" x="161" y="326.6738"/><text fill="#000000" font-family="sans-serif" font-size="14" lengthAdjust="spacing" textLength="115.1719" x="173" y="333.9707">int anioNacimiento</text><rect fill="none" height="6" style="stroke:#C82930;stroke-width:1.0;" width="6" x="161" y="345.2949"/><text fill="#000000" font-family="sans-serif" font-size="14" lengthAdjust="spacing" textLength="210.1367" x="173" y="352.5918">LocalDate fechaCaducidadCarnet</text><line style="stroke:#181818;stroke-width:0.5;" x1="154" x2="388.1367" y1="360.1055" y2="360.1055"/><ellipse cx="164" cy="374.916" fill="#84BE84" rx="3" ry="3" style="stroke:#038048;stroke-width:1.0;"/><text fill="#000000" font-family="sans-serif" font-size="14" lengthAdjust="spacing" textLength="128.3926" x="173" y="379.2129">boolean validarDNI()</text></g><!--class Coche--><g id="elem_Coche"><rect codeLine="20" fill="#F1F1F1" height="122.4844" id="Coche" rx="2.5" ry="2.5" style="stroke:#181818;stroke-width:0.5;" width="184.7783" x="424.5" y="246"/><ellipse cx="492.4048" cy="262" fill="#ADD1B2" rx="11" ry="11" style="stroke:#181818;stroke-width:1.0;"/><path d="M495.1704,257.875 Q495.3267,257.6563 495.5142,257.5469 Q495.7017,257.4375 495.9204,257.4375 Q496.2954,257.4375 496.5298,257.7031 Q496.7642,257.9531 496.7642,258.5625 L496.7642,260.0156 Q496.7642,260.625 496.5298,260.8906 Q496.2954,261.1563 495.9204,261.1563 Q495.5767,261.1563 495.3735,260.9531 Q495.1704,260.7656 495.061,260.25 Q495.0142,259.8906 494.8267,259.7031 Q494.4985,259.3281 493.8892,259.1094 Q493.2798,258.8906 492.6548,258.8906 Q491.8892,258.8906 491.2485,259.2188 Q490.6235,259.5469 490.1235,260.2969 Q489.6392,261.0469 489.6392,262.0781 L489.6392,263.1719 Q489.6392,264.4063 490.5298,265.2344 Q491.4204,266.0469 493.0142,266.0469 Q493.9517,266.0469 494.6079,265.7969 Q494.9985,265.6406 495.4204,265.2031 Q495.686,264.9375 495.8267,264.8594 Q495.9829,264.7813 496.186,264.7813 Q496.5142,264.7813 496.7642,265.0469 Q497.0298,265.2969 497.0298,265.6406 Q497.0298,265.9844 496.686,266.3906 Q496.186,266.9688 495.3892,267.2969 Q494.311,267.75 493.0142,267.75 Q491.4985,267.75 490.2954,267.125 Q489.311,266.625 488.6235,265.5625 Q487.936,264.4844 487.936,263.2031 L487.936,262.0469 Q487.936,260.7188 488.5454,259.5781 Q489.1704,258.4219 490.2642,257.8125 Q491.3579,257.1875 492.5923,257.1875 Q493.3267,257.1875 493.9673,257.3594 Q494.6235,257.5156 495.1704,257.875 Z " fill="#000000"/><text fill="#000000" font-family="sans-serif" font-size="14" lengthAdjust="spacing" textLength="40.4688" x="512.9048" y="267.7969">Coche</text><line style="stroke:#181818;stroke-width:0.5;" x1="425.5" x2="608.2783" y1="278" y2="278"/><rect fill="none" height="6" style="stroke:#C82930;stroke-width:1.0;" width="6" x="432.5" y="289.8105"/><text fill="#000000" font-family="sans-serif" font-size="14" lengthAdjust="spacing" textLength="128.3857" x="444.5" y="297.1074">String tipoCarroceria</text><rect fill="none" height="6" style="stroke:#C82930;stroke-width:1.0;" width="6" x="432.5" y="308.4316"/><text fill="#000000" font-family="sans-serif" font-size="14" lengthAdjust="spacing" textLength="158.7783" x="444.5" y="315.7285">boolean traccion4Ruedas</text><line style="stroke:#181818;stroke-width:0.5;" x1="425.5" x2="608.2783" y1="323.2422" y2="323.2422"/><ellipse cx="435.5" cy="338.0527" fill="#84BE84" rx="3" ry="3" style="stroke:#038048;stroke-width:1.0;"/><text fill="#000000" font-family="sans-serif" font-size="14" lengthAdjust="spacing" textLength="91.0273" x="444.5" y="342.3496">void arrancar()</text><ellipse cx="435.5" cy="356.6738" fill="#84BE84" rx="3" ry="3" style="stroke:#038048;stroke-width:1.0;"/><text fill="#000000" font-family="sans-serif" font-size="14" lengthAdjust="spacing" textLength="75.4688" x="444.5" y="360.9707">void frenar()</text></g><!--class Moto--><g id="elem_Moto"><rect codeLine="28" fill="#F1F1F1" height="122.4844" id="Moto" rx="2.5" ry="2.5" style="stroke:#181818;stroke-width:0.5;" width="164.5439" x="644.5" y="246"/><ellipse cx="706.96" cy="262" fill="#ADD1B2" rx="11" ry="11" style="stroke:#181818;stroke-width:1.0;"/><path d="M709.7256,257.875 Q709.8818,257.6563 710.0693,257.5469 Q710.2568,257.4375 710.4756,257.4375 Q710.8506,257.4375 711.085,257.7031 Q711.3193,257.9531 711.3193,258.5625 L711.3193,260.0156 Q711.3193,260.625 711.085,260.8906 Q710.8506,261.1563 710.4756,261.1563 Q710.1318,261.1563 709.9287,260.9531 Q709.7256,260.7656 709.6162,260.25 Q709.5693,259.8906 709.3818,259.7031 Q709.0537,259.3281 708.4443,259.1094 Q707.835,258.8906 707.21,258.8906 Q706.4443,258.8906 705.8037,259.2188 Q705.1787,259.5469 704.6787,260.2969 Q704.1943,261.0469 704.1943,262.0781 L704.1943,263.1719 Q704.1943,264.4063 705.085,265.2344 Q705.9756,266.0469 707.5693,266.0469 Q708.5068,266.0469 709.1631,265.7969 Q709.5537,265.6406 709.9756,265.2031 Q710.2412,264.9375 710.3818,264.8594 Q710.5381,264.7813 710.7412,264.7813 Q711.0693,264.7813 711.3193,265.0469 Q711.585,265.2969 711.585,265.6406 Q711.585,265.9844 711.2412,266.3906 Q710.7412,266.9688 709.9443,267.2969 Q708.8662,267.75 707.5693,267.75 Q706.0537,267.75 704.8506,267.125 Q703.8662,266.625 703.1787,265.5625 Q702.4912,264.4844 702.4912,263.2031 L702.4912,262.0469 Q702.4912,260.7188 703.1006,259.5781 Q703.7256,258.4219 704.8193,257.8125 Q705.9131,257.1875 707.1475,257.1875 Q707.8818,257.1875 708.5225,257.3594 Q709.1787,257.5156 709.7256,257.875 Z " fill="#000000"/><text fill="#000000" font-family="sans-serif" font-size="14" lengthAdjust="spacing" textLength="31.124" x="727.46" y="267.7969">Moto</text><line style="stroke:#181818;stroke-width:0.5;" x1="645.5" x2="808.0439" y1="278" y2="278"/><rect fill="none" height="6" style="stroke:#C82930;stroke-width:1.0;" width="6" x="652.5" y="289.8105"/><text fill="#000000" font-family="sans-serif" font-size="14" lengthAdjust="spacing" textLength="94.1582" x="664.5" y="297.1074">String tipoMoto</text><rect fill="none" height="6" style="stroke:#C82930;stroke-width:1.0;" width="6" x="652.5" y="308.4316"/><text fill="#000000" font-family="sans-serif" font-size="14" lengthAdjust="spacing" textLength="138.5439" x="664.5" y="315.7285">boolean tieneMaletero</text><line style="stroke:#181818;stroke-width:0.5;" x1="645.5" x2="808.0439" y1="323.2422" y2="323.2422"/><ellipse cx="655.5" cy="338.0527" fill="#84BE84" rx="3" ry="3" style="stroke:#038048;stroke-width:1.0;"/><text fill="#000000" font-family="sans-serif" font-size="14" lengthAdjust="spacing" textLength="91.0273" x="664.5" y="342.3496">void arrancar()</text><ellipse cx="655.5" cy="356.6738" fill="#84BE84" rx="3" ry="3" style="stroke:#038048;stroke-width:1.0;"/><text fill="#000000" font-family="sans-serif" font-size="14" lengthAdjust="spacing" textLength="75.4688" x="664.5" y="360.9707">void frenar()</text></g><!--class Camion--><g id="elem_Camion"><rect codeLine="36" fill="#F1F1F1" height="122.4844" id="Camion" rx="2.5" ry="2.5" style="stroke:#181818;stroke-width:0.5;" width="173.8887" x="845" y="246"/><ellipse cx="903.5737" cy="262" fill="#ADD1B2" rx="11" ry="11" style="stroke:#181818;stroke-width:1.0;"/><path d="M906.3394,257.875 Q906.4956,257.6563 906.6831,257.5469 Q906.8706,257.4375 907.0894,257.4375 Q907.4644,257.4375 907.6987,257.7031 Q907.9331,257.9531 907.9331,258.5625 L907.9331,260.0156 Q907.9331,260.625 907.6987,260.8906 Q907.4644,261.1563 907.0894,261.1563 Q906.7456,261.1563 906.5425,260.9531 Q906.3394,260.7656 906.23,260.25 Q906.1831,259.8906 905.9956,259.7031 Q905.6675,259.3281 905.0581,259.1094 Q904.4487,258.8906 903.8237,258.8906 Q903.0581,258.8906 902.4175,259.2188 Q901.7925,259.5469 901.2925,260.2969 Q900.8081,261.0469 900.8081,262.0781 L900.8081,263.1719 Q900.8081,264.4063 901.6987,265.2344 Q902.5894,266.0469 904.1831,266.0469 Q905.1206,266.0469 905.7769,265.7969 Q906.1675,265.6406 906.5894,265.2031 Q906.855,264.9375 906.9956,264.8594 Q907.1519,264.7813 907.355,264.7813 Q907.6831,264.7813 907.9331,265.0469 Q908.1987,265.2969 908.1987,265.6406 Q908.1987,265.9844 907.855,266.3906 Q907.355,266.9688 906.5581,267.2969 Q905.48,267.75 904.1831,267.75 Q902.6675,267.75 901.4644,267.125 Q900.48,266.625 899.7925,265.5625 Q899.105,264.4844 899.105,263.2031 L899.105,262.0469 Q899.105,260.7188 899.7144,259.5781 Q900.3394,258.4219 901.4331,257.8125 Q902.5269,257.1875 903.7612,257.1875 Q904.4956,257.1875 905.1362,257.3594 Q905.7925,257.5156 906.3394,257.875 Z " fill="#000000"/><text fill="#000000" font-family="sans-serif" font-size="14" lengthAdjust="spacing" textLength="48.2412" x="924.0737" y="267.7969">Camion</text><line style="stroke:#181818;stroke-width:0.5;" x1="846" x2="1017.8887" y1="278" y2="278"/><rect fill="none" height="6" style="stroke:#C82930;stroke-width:1.0;" width="6" x="853" y="289.8105"/><text fill="#000000" font-family="sans-serif" font-size="14" lengthAdjust="spacing" textLength="147.8887" x="865" y="297.1074">double capacidadCarga</text><rect fill="none" height="6" style="stroke:#C82930;stroke-width:1.0;" width="6" x="853" y="308.4316"/><text fill="#000000" font-family="sans-serif" font-size="14" lengthAdjust="spacing" textLength="93.3789" x="865" y="315.7285">int numeroEjes</text><line style="stroke:#181818;stroke-width:0.5;" x1="846" x2="1017.8887" y1="323.2422" y2="323.2422"/><ellipse cx="856" cy="338.0527" fill="#84BE84" rx="3" ry="3" style="stroke:#038048;stroke-width:1.0;"/><text fill="#000000" font-family="sans-serif" font-size="14" lengthAdjust="spacing" textLength="78.5791" x="865" y="342.3496">void cargar()</text><ellipse cx="856" cy="356.6738" fill="#84BE84" rx="3" ry="3" style="stroke:#038048;stroke-width:1.0;"/><text fill="#000000" font-family="sans-serif" font-size="14" lengthAdjust="spacing" textLength="101.1514" x="865" y="360.9707">void descargar()</text></g><!--class SUV--><g id="elem_SUV"><rect codeLine="44" fill="#F1F1F1" height="85.2422" id="SUV" rx="2.5" ry="2.5" style="stroke:#181818;stroke-width:0.5;" width="210.4541" x="7" y="457.5"/><ellipse cx="93.584" cy="473.5" fill="#ADD1B2" rx="11" ry="11" style="stroke:#181818;stroke-width:1.0;"/><path d="M96.3496,469.375 Q96.5059,469.1563 96.6934,469.0469 Q96.8809,468.9375 97.0996,468.9375 Q97.4746,468.9375 97.709,469.2031 Q97.9434,469.4531 97.9434,470.0625 L97.9434,471.5156 Q97.9434,472.125 97.709,472.3906 Q97.4746,472.6563 97.0996,472.6563 Q96.7559,472.6563 96.5527,472.4531 Q96.3496,472.2656 96.2402,471.75 Q96.1934,471.3906 96.0059,471.2031 Q95.6777,470.8281 95.0684,470.6094 Q94.459,470.3906 93.834,470.3906 Q93.0684,470.3906 92.4277,470.7188 Q91.8027,471.0469 91.3027,471.7969 Q90.8184,472.5469 90.8184,473.5781 L90.8184,474.6719 Q90.8184,475.9063 91.709,476.7344 Q92.5996,477.5469 94.1934,477.5469 Q95.1309,477.5469 95.7871,477.2969 Q96.1777,477.1406 96.5996,476.7031 Q96.8652,476.4375 97.0059,476.3594 Q97.1621,476.2813 97.3652,476.2813 Q97.6934,476.2813 97.9434,476.5469 Q98.209,476.7969 98.209,477.1406 Q98.209,477.4844 97.8652,477.8906 Q97.3652,478.4688 96.5684,478.7969 Q95.4902,479.25 94.1934,479.25 Q92.6777,479.25 91.4746,478.625 Q90.4902,478.125 89.8027,477.0625 Q89.1152,475.9844 89.1152,474.7031 L89.1152,473.5469 Q89.1152,472.2188 89.7246,471.0781 Q90.3496,469.9219 91.4434,469.3125 Q92.5371,468.6875 93.7715,468.6875 Q94.5059,468.6875 95.1465,468.8594 Q95.8027,469.0156 96.3496,469.375 Z " fill="#000000"/><text fill="#000000" font-family="sans-serif" font-size="14" lengthAdjust="spacing" textLength="28.7861" x="114.084" y="479.2969">SUV</text><line style="stroke:#181818;stroke-width:0.5;" x1="8" x2="216.4541" y1="489.5" y2="489.5"/><rect fill="none" height="6" style="stroke:#C82930;stroke-width:1.0;" width="6" x="15" y="501.3105"/><text fill="#000000" font-family="sans-serif" font-size="14" lengthAdjust="spacing" textLength="184.4541" x="27" y="508.6074">boolean tieneTraccionIntegral</text><line style="stroke:#181818;stroke-width:0.5;" x1="8" x2="216.4541" y1="516.1211" y2="516.1211"/><ellipse cx="18" cy="530.9316" fill="#84BE84" rx="3" ry="3" style="stroke:#038048;stroke-width:1.0;"/><text fill="#000000" font-family="sans-serif" font-size="14" lengthAdjust="spacing" textLength="180.5098" x="27" y="535.2285">void activarTraccionIntegral()</text></g><!--class Sedan--><g id="elem_Sedan"><rect codeLine="50" fill="#F1F1F1" height="85.2422" id="Sedan" rx="2.5" ry="2.5" style="stroke:#181818;stroke-width:0.5;" width="147.3721" x="252.5" y="457.5"/><ellipse cx="301.6948" cy="473.5" fill="#ADD1B2" rx="11" ry="11" style="stroke:#181818;stroke-width:1.0;"/><path d="M304.4604,469.375 Q304.6167,469.1563 304.8042,469.0469 Q304.9917,468.9375 305.2104,468.9375 Q305.5854,468.9375 305.8198,469.2031 Q306.0542,469.4531 306.0542,470.0625 L306.0542,471.5156 Q306.0542,472.125 305.8198,472.3906 Q305.5854,472.6563 305.2104,472.6563 Q304.8667,472.6563 304.6636,472.4531 Q304.4604,472.2656 304.3511,471.75 Q304.3042,471.3906 304.1167,471.2031 Q303.7886,470.8281 303.1792,470.6094 Q302.5698,470.3906 301.9448,470.3906 Q301.1792,470.3906 300.5386,470.7188 Q299.9136,471.0469 299.4136,471.7969 Q298.9292,472.5469 298.9292,473.5781 L298.9292,474.6719 Q298.9292,475.9063 299.8198,476.7344 Q300.7104,477.5469 302.3042,477.5469 Q303.2417,477.5469 303.8979,477.2969 Q304.2886,477.1406 304.7104,476.7031 Q304.9761,476.4375 305.1167,476.3594 Q305.2729,476.2813 305.4761,476.2813 Q305.8042,476.2813 306.0542,476.5469 Q306.3198,476.7969 306.3198,477.1406 Q306.3198,477.4844 305.9761,477.8906 Q305.4761,478.4688 304.6792,478.7969 Q303.6011,479.25 302.3042,479.25 Q300.7886,479.25 299.5854,478.625 Q298.6011,478.125 297.9136,477.0625 Q297.2261,475.9844 297.2261,474.7031 L297.2261,473.5469 Q297.2261,472.2188 297.8354,471.0781 Q298.4604,469.9219 299.5542,469.3125 Q300.6479,468.6875 301.8823,468.6875 Q302.6167,468.6875 303.2573,468.8594 Q303.9136,469.0156 304.4604,469.375 Z " fill="#000000"/><text fill="#000000" font-family="sans-serif" font-size="14" lengthAdjust="spacing" textLength="40.4824" x="322.1948" y="479.2969">Sedan</text><line style="stroke:#181818;stroke-width:0.5;" x1="253.5" x2="398.8721" y1="489.5" y2="489.5"/><rect fill="none" height="6" style="stroke:#C82930;stroke-width:1.0;" width="6" x="260.5" y="501.3105"/><text fill="#000000" font-family="sans-serif" font-size="14" lengthAdjust="spacing" textLength="114.3926" x="272.5" y="508.6074">int numeroPuertas</text><line style="stroke:#181818;stroke-width:0.5;" x1="253.5" x2="398.8721" y1="516.1211" y2="516.1211"/><ellipse cx="263.5" cy="530.9316" fill="#84BE84" rx="3" ry="3" style="stroke:#038048;stroke-width:1.0;"/><text fill="#000000" font-family="sans-serif" font-size="14" lengthAdjust="spacing" textLength="121.3721" x="272.5" y="535.2285">void abrirMaletero()</text></g><!--class Deportivo--><g id="elem_Deportivo"><rect codeLine="56" fill="#F1F1F1" height="103.8633" id="Deportivo" rx="2.5" ry="2.5" style="stroke:#181818;stroke-width:0.5;" width="180.0889" x="435" y="448"/><ellipse cx="490.8359" cy="464" fill="#ADD1B2" rx="11" ry="11" style="stroke:#181818;stroke-width:1.0;"/><path d="M493.6016,459.875 Q493.7578,459.6563 493.9453,459.5469 Q494.1328,459.4375 494.3516,459.4375 Q494.7266,459.4375 494.9609,459.7031 Q495.1953,459.9531 495.1953,460.5625 L495.1953,462.0156 Q495.1953,462.625 494.9609,462.8906 Q494.7266,463.1563 494.3516,463.1563 Q494.0078,463.1563 493.8047,462.9531 Q493.6016,462.7656 493.4922,462.25 Q493.4453,461.8906 493.2578,461.7031 Q492.9297,461.3281 492.3203,461.1094 Q491.7109,460.8906 491.0859,460.8906 Q490.3203,460.8906 489.6797,461.2188 Q489.0547,461.5469 488.5547,462.2969 Q488.0703,463.0469 488.0703,464.0781 L488.0703,465.1719 Q488.0703,466.4063 488.9609,467.2344 Q489.8516,468.0469 491.4453,468.0469 Q492.3828,468.0469 493.0391,467.7969 Q493.4297,467.6406 493.8516,467.2031 Q494.1172,466.9375 494.2578,466.8594 Q494.4141,466.7813 494.6172,466.7813 Q494.9453,466.7813 495.1953,467.0469 Q495.4609,467.2969 495.4609,467.6406 Q495.4609,467.9844 495.1172,468.3906 Q494.6172,468.9688 493.8203,469.2969 Q492.7422,469.75 491.4453,469.75 Q489.9297,469.75 488.7266,469.125 Q487.7422,468.625 487.0547,467.5625 Q486.3672,466.4844 486.3672,465.2031 L486.3672,464.0469 Q486.3672,462.7188 486.9766,461.5781 Q487.6016,460.4219 488.6953,459.8125 Q489.7891,459.1875 491.0234,459.1875 Q491.7578,459.1875 492.3984,459.3594 Q493.0547,459.5156 493.6016,459.875 Z " fill="#000000"/><text fill="#000000" font-family="sans-serif" font-size="14" lengthAdjust="spacing" textLength="59.917" x="511.3359" y="469.7969">Deportivo</text><line style="stroke:#181818;stroke-width:0.5;" x1="436" x2="614.0889" y1="480" y2="480"/><rect fill="none" height="6" style="stroke:#C82930;stroke-width:1.0;" width="6" x="443" y="491.8105"/><text fill="#000000" font-family="sans-serif" font-size="14" lengthAdjust="spacing" textLength="154.0889" x="455" y="499.1074">double velocidadMaxima</text><line style="stroke:#181818;stroke-width:0.5;" x1="436" x2="614.0889" y1="506.6211" y2="506.6211"/><ellipse cx="446" cy="521.4316" fill="#84BE84" rx="3" ry="3" style="stroke:#038048;stroke-width:1.0;"/><text fill="#000000" font-family="sans-serif" font-size="14" lengthAdjust="spacing" textLength="89.4756" x="455" y="525.7285">void acelerar()</text><ellipse cx="446" cy="540.0527" fill="#84BE84" rx="3" ry="3" style="stroke:#038048;stroke-width:1.0;"/><text fill="#000000" font-family="sans-serif" font-size="14" lengthAdjust="spacing" textLength="75.4688" x="455" y="544.3496">void frenar()</text></g><!--class Scooter--><g id="elem_Scooter"><rect codeLine="63" fill="#F1F1F1" height="85.2422" id="Scooter" rx="2.5" ry="2.5" style="stroke:#181818;stroke-width:0.5;" width="152.8135" x="650.5" y="457.5"/><ellipse cx="698.5327" cy="473.5" fill="#ADD1B2" rx="11" ry="11" style="stroke:#181818;stroke-width:1.0;"/><path d="M701.2983,469.375 Q701.4546,469.1563 701.6421,469.0469 Q701.8296,468.9375 702.0483,468.9375 Q702.4233,468.9375 702.6577,469.2031 Q702.8921,469.4531 702.8921,470.0625 L702.8921,471.5156 Q702.8921,472.125 702.6577,472.3906 Q702.4233,472.6563 702.0483,472.6563 Q701.7046,472.6563 701.5015,472.4531 Q701.2983,472.2656 701.189,471.75 Q701.1421,471.3906 700.9546,471.2031 Q700.6265,470.8281 700.0171,470.6094 Q699.4077,470.3906 698.7827,470.3906 Q698.0171,470.3906 697.3765,470.7188 Q696.7515,471.0469 696.2515,471.7969 Q695.7671,472.5469 695.7671,473.5781 L695.7671,474.6719 Q695.7671,475.9063 696.6577,476.7344 Q697.5483,477.5469 699.1421,477.5469 Q700.0796,477.5469 700.7358,477.2969 Q701.1265,477.1406 701.5483,476.7031 Q701.814,476.4375 701.9546,476.3594 Q702.1108,476.2813 702.314,476.2813 Q702.6421,476.2813 702.8921,476.5469 Q703.1577,476.7969 703.1577,477.1406 Q703.1577,477.4844 702.814,477.8906 Q702.314,478.4688 701.5171,478.7969 Q700.439,479.25 699.1421,479.25 Q697.6265,479.25 696.4233,478.625 Q695.439,478.125 694.7515,477.0625 Q694.064,475.9844 694.064,474.7031 L694.064,473.5469 Q694.064,472.2188 694.6733,471.0781 Q695.2983,469.9219 696.3921,469.3125 Q697.4858,468.6875 698.7202,468.6875 Q699.4546,468.6875 700.0952,468.8594 Q700.7515,469.0156 701.2983,469.375 Z " fill="#000000"/><text fill="#000000" font-family="sans-serif" font-size="14" lengthAdjust="spacing" textLength="48.248" x="719.0327" y="479.2969">Scooter</text><line style="stroke:#181818;stroke-width:0.5;" x1="651.5" x2="802.3135" y1="489.5" y2="489.5"/><rect fill="none" height="6" style="stroke:#C82930;stroke-width:1.0;" width="6" x="658.5" y="501.3105"/><text fill="#000000" font-family="sans-serif" font-size="14" lengthAdjust="spacing" textLength="123.7578" x="670.5" y="508.6074">boolean tieneCasco</text><line style="stroke:#181818;stroke-width:0.5;" x1="651.5" x2="802.3135" y1="516.1211" y2="516.1211"/><ellipse cx="661.5" cy="530.9316" fill="#84BE84" rx="3" ry="3" style="stroke:#038048;stroke-width:1.0;"/><text fill="#000000" font-family="sans-serif" font-size="14" lengthAdjust="spacing" textLength="126.8135" x="670.5" y="535.2285">void arrancarMotor()</text></g><!--class MotoDeportiva--><g id="elem_MotoDeportiva"><rect codeLine="69" fill="#F1F1F1" height="103.8633" id="MotoDeportiva" rx="2.5" ry="2.5" style="stroke:#181818;stroke-width:0.5;" width="160.6475" x="838.5" y="448"/><ellipse cx="870.4229" cy="464" fill="#ADD1B2" rx="11" ry="11" style="stroke:#181818;stroke-width:1.0;"/><path d="M873.1885,459.875 Q873.3448,459.6563 873.5323,459.5469 Q873.7198,459.4375 873.9385,459.4375 Q874.3135,459.4375 874.5479,459.7031 Q874.7823,459.9531 874.7823,460.5625 L874.7823,462.0156 Q874.7823,462.625 874.5479,462.8906 Q874.3135,463.1563 873.9385,463.1563 Q873.5948,463.1563 873.3917,462.9531 Q873.1885,462.7656 873.0792,462.25 Q873.0323,461.8906 872.8448,461.7031 Q872.5167,461.3281 871.9073,461.1094 Q871.2979,460.8906 870.6729,460.8906 Q869.9073,460.8906 869.2667,461.2188 Q868.6417,461.5469 868.1417,462.2969 Q867.6573,463.0469 867.6573,464.0781 L867.6573,465.1719 Q867.6573,466.4063 868.5479,467.2344 Q869.4385,468.0469 871.0323,468.0469 Q871.9698,468.0469 872.626,467.7969 Q873.0167,467.6406 873.4385,467.2031 Q873.7042,466.9375 873.8448,466.8594 Q874.001,466.7813 874.2042,466.7813 Q874.5323,466.7813 874.7823,467.0469 Q875.0479,467.2969 875.0479,467.6406 Q875.0479,467.9844 874.7042,468.3906 Q874.2042,468.9688 873.4073,469.2969 Q872.3292,469.75 871.0323,469.75 Q869.5167,469.75 868.3135,469.125 Q867.3292,468.625 866.6417,467.5625 Q865.9542,466.4844 865.9542,465.2031 L865.9542,464.0469 Q865.9542,462.7188 866.5635,461.5781 Q867.1885,460.4219 868.2823,459.8125 Q869.376,459.1875 870.6104,459.1875 Q871.3448,459.1875 871.9854,459.3594 Q872.6417,459.5156 873.1885,459.875 Z " fill="#000000"/><text fill="#000000" font-family="sans-serif" font-size="14" lengthAdjust="spacing" textLength="91.041" x="888.1835" y="469.7969">MotoDeportiva</text><line style="stroke:#181818;stroke-width:0.5;" x1="839.5" x2="998.1475" y1="480" y2="480"/><rect fill="none" height="6" style="stroke:#C82930;stroke-width:1.0;" width="6" x="846.5" y="491.8105"/><text fill="#000000" font-family="sans-serif" font-size="14" lengthAdjust="spacing" textLength="134.6475" x="858.5" y="499.1074">double potenciaMotor</text><line style="stroke:#181818;stroke-width:0.5;" x1="839.5" x2="998.1475" y1="506.6211" y2="506.6211"/><ellipse cx="849.5" cy="521.4316" fill="#84BE84" rx="3" ry="3" style="stroke:#038048;stroke-width:1.0;"/><text fill="#000000" font-family="sans-serif" font-size="14" lengthAdjust="spacing" textLength="89.4756" x="858.5" y="525.7285">void acelerar()</text><ellipse cx="849.5" cy="540.0527" fill="#84BE84" rx="3" ry="3" style="stroke:#038048;stroke-width:1.0;"/><text fill="#000000" font-family="sans-serif" font-size="14" lengthAdjust="spacing" textLength="75.4688" x="858.5" y="544.3496">void frenar()</text></g><!--class Valorable--><g id="elem_Valorable"><rect codeLine="76" fill="#F1F1F1" height="66.6211" id="Valorable" rx="2.5" ry="2.5" style="stroke:#181818;stroke-width:0.5;" width="211.2061" x="1054.5" y="273.5"/><ellipse cx="1126.2773" cy="289.5" fill="#B4A7E5" rx="11" ry="11" style="stroke:#181818;stroke-width:1.0;"/><path d="M1127.2305,286.1406 L1127.2305,292.7969 L1128.9492,292.7969 Q1129.5586,292.7969 1129.8242,293.0313 Q1130.0898,293.2656 1130.0898,293.6563 Q1130.0898,294.0313 1129.8242,294.2656 Q1129.5586,294.5 1128.9492,294.5 L1123.8086,294.5 Q1123.1992,294.5 1122.9336,294.2656 Q1122.668,294.0313 1122.668,293.6406 Q1122.668,293.2656 1122.9336,293.0313 Q1123.1992,292.7969 1123.8086,292.7969 L1125.5273,292.7969 L1125.5273,286.1406 L1123.8086,286.1406 Q1123.1992,286.1406 1122.9336,285.9063 Q1122.668,285.6719 1122.668,285.2813 Q1122.668,284.9063 1122.9336,284.6719 Q1123.1992,284.4375 1123.8086,284.4375 L1128.9492,284.4375 Q1129.5586,284.4375 1129.8242,284.6719 Q1130.0898,284.9063 1130.0898,285.2813 Q1130.0898,285.6719 1129.8242,285.9063 Q1129.5586,286.1406 1128.9492,286.1406 L1127.2305,286.1406 Z " fill="#000000"/><text fill="#000000" font-family="sans-serif" font-size="14" font-style="italic" lengthAdjust="spacing" textLength="59.1514" x="1146.7773" y="295.2969">Valorable</text><line style="stroke:#181818;stroke-width:0.5;" x1="1055.5" x2="1264.7061" y1="305.5" y2="305.5"/><line style="stroke:#181818;stroke-width:0.5;" x1="1055.5" x2="1264.7061" y1="313.5" y2="313.5"/><ellipse cx="1065.5" cy="328.3105" fill="#84BE84" rx="3" ry="3" style="stroke:#038048;stroke-width:1.0;"/><text fill="#000000" font-family="sans-serif" font-size="14" lengthAdjust="spacing" textLength="185.2061" x="1074.5" y="332.6074">double calcularDepreciacion()</text></g><!--reverse link Vehiculo to Coche--><g id="link_Vehiculo_Coche"><path codeLine="80" d="M650.3606,161.5261 C621.5406,192.7461 600.12,215.96 572.44,245.93 " fill="none" id="Vehiculo-backto-Coche" style="stroke:#181818;stroke-width:1.0;"/><polygon fill="none" points="662.57,148.3,645.9519,157.4563,654.7693,165.5959,662.57,148.3" style="stroke:#181818;stroke-width:1.0;"/></g><!--reverse link Vehiculo to Moto--><g id="link_Vehiculo_Moto"><path codeLine="81" d="M727,166.3 C727,197.52 727,215.96 727,245.93 " fill="none" id="Vehiculo-backto-Moto" style="stroke:#181818;stroke-width:1.0;"/><polygon fill="none" points="727,148.3,721,166.3,733,166.3,727,148.3" style="stroke:#181818;stroke-width:1.0;"/></g><!--reverse link Vehiculo to Camion--><g id="link_Vehiculo_Camion"><path codeLine="82" d="M801.9489,161.6725 C830.0789,192.8925 850.86,215.96 877.88,245.93 " fill="none" id="Vehiculo-backto-Camion" style="stroke:#181818;stroke-width:1.0;"/><polygon fill="none" points="789.9,148.3,797.4914,165.6888,806.4064,157.6562,789.9,148.3" style="stroke:#181818;stroke-width:1.0;"/></g><!--reverse link Coche to SUV--><g id="link_Coche_SUV"><path codeLine="83" d="M422.9447,377.9147 C412.4447,384.7347 416.7,381.42 406,387 C334.45,424.3 310.29,418.98 235,448 C227.23,450.99 219.22,454.15 211.18,457.37 " fill="none" id="Coche-backto-SUV" style="stroke:#181818;stroke-width:1.0;"/><polygon fill="none" points="438.04,368.11,419.6765,372.883,426.213,382.9465,438.04,368.11" style="stroke:#181818;stroke-width:1.0;"/></g><!--reverse link Coche to Sedan--><g id="link_Coche_Sedan"><path codeLine="84" d="M444.1021,380.8979 C415.1221,409.8779 393.82,431.18 367.73,457.27 " fill="none" id="Coche-backto-Sedan" style="stroke:#181818;stroke-width:1.0;"/><polygon fill="none" points="456.83,368.17,439.8594,376.6553,448.3447,385.1406,456.83,368.17" style="stroke:#181818;stroke-width:1.0;"/></g><!--reverse link Coche to Deportivo--><g id="link_Coche_Deportivo"><path codeLine="85" d="M520.272,386.1543 C521.342,411.7443 521.83,423.28 522.86,447.8 " fill="none" id="Coche-backto-Deportivo" style="stroke:#181818;stroke-width:1.0;"/><polygon fill="none" points="519.52,368.17,514.2772,386.4049,526.2667,385.9036,519.52,368.17" style="stroke:#181818;stroke-width:1.0;"/></g><!--reverse link Moto to Scooter--><g id="link_Moto_Scooter"><path codeLine="86" d="M727,386.17 C727,415.15 727,431.18 727,457.27 " fill="none" id="Moto-backto-Scooter" style="stroke:#181818;stroke-width:1.0;"/><polygon fill="none" points="727,368.17,721,386.17,733,386.17,727,368.17" style="stroke:#181818;stroke-width:1.0;"/></g><!--reverse link Moto to MotoDeportiva--><g id="link_Moto_MotoDeportiva"><path codeLine="87" d="M800.2501,380.8656 C825.9701,406.4556 842.89,423.28 867.54,447.8 " fill="none" id="Moto-backto-MotoDeportiva" style="stroke:#181818;stroke-width:1.0;"/><polygon fill="none" points="787.49,368.17,796.0183,385.119,804.482,376.6123,787.49,368.17" style="stroke:#181818;stroke-width:1.0;"/></g><!--reverse link Vehiculo to Persona--><g id="link_Vehiculo_Persona"><path codeLine="88" d="M645.8372,113.6752 C580.3972,142.4852 491.46,182.99 407,227 C401.19,230.03 395.27,233.18 389.32,236.41 " fill="none" id="Vehiculo-backto-Persona" style="stroke:#181818;stroke-width:1.0;"/><polygon fill="none" points="656.82,108.84,649.7169,107.5967,645.8372,113.6752,652.9403,114.9185,656.82,108.84" style="stroke:#181818;stroke-width:1.0;"/><text fill="#000000" font-family="sans-serif" font-size="13" lengthAdjust="spacing" textLength="61.4263" x="504" y="193.0283">propietario</text><text fill="#000000" font-family="sans-serif" font-size="13" lengthAdjust="spacing" textLength="7.23" x="641.7946" y="108.3766">1</text><text fill="#000000" font-family="sans-serif" font-size="13" lengthAdjust="spacing" textLength="21.6836" x="397.1866" y="228.636">0..1</text></g><!--link Vehiculo to Valorable--><g id="link_Vehiculo_Valorable"><path codeLine="89" d="M797.23,109.36 C860.66,137.9 956.03,182.52 1036,227 C1061.65,241.27 1074.2208,248.8 1096.8708,263.63 " fill="none" id="Vehiculo-to-Valorable" style="stroke:#181818;stroke-width:1.0;stroke-dasharray:7.0,7.0;"/><polygon fill="none" points="1111.93,273.49,1100.1574,258.6103,1093.5841,268.6498,1111.93,273.49" style="stroke:#181818;stroke-width:1.0;"/></g><!--SRC=[bLJ1Rjim3BtxAuISDWm9Ec2dOTZ5sQ50KnJBbZijCGaxMJHeEHZGxjz7ox5ZfGMAdX8_q-yzFbA2geq2DXhheMtD3ezaEy_cgJ1cQRPHA1nC3VghCEIWs1nWXvuJuhYhF9e_vBb6vN_4ETm8MkBYNr4CeWyeBGV8DGFNbU0SWGQz9yVj77I1qYE5Q20GtuEbcZ34mSWTM_1hY6ZsQ8zGWkiiEN0bIC1OQCqdKp5xX61EeEmWw_lR3nylvagsHyojHMfO2OGj2WqHZ1nzbjfR-FApGmVj871YSaRh8LWGvPwmlM18oAIsuSWlnNeqbz4ESGCU8mg_MwI4MYsUPSupiT30cCm1faX3Lwl2ZqUSjsBxaap3OJk1aypsz-wiaTd-TOxeDaGy2FYvVHlf179TaP5ghAFrYy673YNcSLT2CYOq9rXZmw8odFT_qjLD_M_WBzMGcKAFybQcMykiKgyrN49hNnjIFzKNmn_jGMwlKV9W2T8txp2d4Q7ijShimBD0p_MKIgUv-_vWY-hsfnBwt8TFfwlWs_DoEHo3AoojvLLPMgrYE3G9qIt87llvpO5f7aNQ_Q5e27E6PD5SD1UV5uRrzU9cjTA_uqNoLQyORWWZ2CqShbRFtoyv5Fy1]--></g></svg>